<svg width="1224" height="320" fill="none" xmlns="http://www.w3.org/2000/svg"><path fill-rule="evenodd" clip-rule="evenodd" d="M742.387 80.98c-5.5 0-10.34-1.1-14.52-3.3-4.18-2.2-7.406-5.28-9.68-9.24-2.273-4.033-3.41-8.69-3.41-13.97V28.29c0-5.28 1.137-9.9 3.41-13.86 2.274-3.96 5.5-7.003 9.68-9.13 4.18-2.2 9.02-3.3 14.52-3.3s10.34 1.1 14.52 3.3c4.254 2.127 7.517 5.17 9.79 9.13 2.274 3.96 3.41 8.58 3.41 13.86v26.18c0 5.28-1.173 9.937-3.52 13.97-2.273 3.96-5.5 7.04-9.68 9.24s-9.02 3.3-14.52 3.3Zm0-17.71c2.127 0 3.814-.733 5.06-2.2 1.32-1.467 1.98-3.41 1.98-5.83v-27.5c0-2.42-.66-4.363-1.98-5.83-1.246-1.467-2.933-2.2-5.06-2.2-2.053 0-3.74.733-5.06 2.2-1.247 1.467-1.87 3.41-1.87 5.83v27.5c0 2.42.623 4.363 1.87 5.83 1.32 1.467 3.007 2.2 5.06 2.2Zm129.752 16.61c-.953 0-1.577-.44-1.87-1.32l-9.35-27.72a.646.646 0 0 0-.226-.396.598.598 0 0 0-.201-.106 1.099 1.099 0 0 0-.343-.048h-1.98c-.44 0-.66.22-.66.66v27.28c0 .323-.058.602-.174.839a1.396 1.396 0 0 1-.266.37c-.293.294-.697.44-1.21.44h-17.38a2.18 2.18 0 0 1-.489-.05 1.637 1.637 0 0 1-.468-.189 1.145 1.145 0 0 1-.061-.04l-.024-.016a1.458 1.458 0 0 1-.168-.144c-.293-.293-.44-.697-.44-1.21V4.53c0-.513.147-.917.44-1.21.293-.293.697-.44 1.21-.44h29.04c4.693 0 8.837 1.027 12.43 3.08s6.38 4.95 8.36 8.69c1.98 3.667 2.97 7.92 2.97 12.76 0 4.473-.953 8.433-2.86 11.88-1.833 3.373-4.437 6.013-7.81 7.92-.293.22-.403.513-.33.88l11.33 29.92c.033.1.059.206.077.32.022.14.033.29.033.45 0 .733-.477 1.1-1.43 1.1h-18.15Zm-13.97-59.29c-.44 0-.66.22-.66.66V33.9c0 .225.058.392.172.502a.579.579 0 0 0 .314.145c.054.009.112.013.174.013h5.83c1.98 0 3.594-.623 4.84-1.87 1.247-1.247 1.87-2.933 1.87-5.06 0-2.2-.623-3.923-1.87-5.17-1.173-1.247-2.786-1.87-4.84-1.87h-5.83Zm-69.281 56.98c4.106 2.127 8.836 3.19 14.19 3.19 5.353 0 10.047-1.063 14.08-3.19 4.106-2.127 7.26-5.133 9.46-9.02 2.273-3.887 3.41-8.397 3.41-13.53V4.53c0-.372-.077-.685-.231-.942l-.022-.035-.02-.032a1.396 1.396 0 0 0-.167-.2c-.293-.294-.697-.441-1.21-.441h-17.38c-.319 0-.595.056-.829.17a1.386 1.386 0 0 0-.661.671 1.576 1.576 0 0 0-.13.431l-.004.027-.007.05a2.227 2.227 0 0 0-.019.301v51.48c0 2.127-.586 3.85-1.76 5.17-1.173 1.247-2.677 1.87-4.51 1.87-1.907 0-3.447-.623-4.62-1.87-1.1-1.32-1.65-3.043-1.65-5.17V4.53c0-.21-.025-.403-.074-.577a1.431 1.431 0 0 0-.366-.633c-.293-.293-.697-.44-1.21-.44h-17.38c-.514 0-.917.147-1.21.44-.293.293-.44.697-.44 1.21v50.49c0 5.133 1.1 9.643 3.3 13.53 2.273 3.887 5.427 6.893 9.46 9.02Zm-114.076 2.04c.148.033.308.05.481.05h17.38c.513 0 .917-.147 1.21-.44.294-.293.44-.697.44-1.21V53.26c0-.35.024-.608.07-.772a.626.626 0 0 1 .04-.108l19.14-47.63c.22-.587.184-1.027-.11-1.32-.22-.367-.623-.55-1.21-.55h-18.7c-.44 0-.843.147-1.21.44-.367.22-.586.55-.66.99l-7.15 23.98c-.014.055-.03.104-.049.149a.583.583 0 0 1-.055.105.38.38 0 0 1-.336.186c-.146 0-.293-.147-.44-.44l-7.26-23.98a1.452 1.452 0 0 0-.24-.607 1.233 1.233 0 0 0-.262-.275 1.603 1.603 0 0 0-.158-.108 1.891 1.891 0 0 0-1.21-.44h-18.59c-.953 0-1.43.367-1.43 1.1 0 .293.037.55.11.77l18.92 47.63c.034.068.061.168.079.3.021.152.031.345.031.58v24.75c0 .513.147.917.44 1.21.195.194.437.324.729.39ZM606.431 4.53c0-.513.147-.917.439-1.21.294-.293.697-.44 1.211-.44h17.38c.513 0 .916.147 1.21.44.293.293.44.697.44 1.21v73.7c0 .513-.147.917-.44 1.21-.294.293-.697.44-1.21.44h-17.38a2.334 2.334 0 0 1-.504-.055 1.662 1.662 0 0 1-.194-.059 1.41 1.41 0 0 1-.513-.326c-.292-.293-.439-.697-.439-1.21V50.62c0-.44-.22-.66-.661-.66h-11c-.439 0-.659.22-.659.66v27.61c0 .513-.147.917-.44 1.21a1.432 1.432 0 0 1-.636.366c-.173.05-.364.074-.574.074h-17.38c-.514 0-.917-.147-1.211-.44a1.405 1.405 0 0 1-.31-.472 1.963 1.963 0 0 1-.129-.738V4.53c0-.513.147-.917.439-1.21.294-.293.697-.44 1.211-.44h17.38c.513 0 .916.147 1.21.44.293.293.44.697.44 1.21v27.06c0 .44.22.66.659.66h11c.098 0 .184-.01.26-.032a.538.538 0 0 0 .225-.122c.117-.11.176-.279.176-.506V4.53ZM526.548 77.9c4.107 1.907 8.874 2.86 14.301 2.86 7.993 0 14.409-2.053 19.25-6.16 4.913-4.107 7.369-9.68 7.369-16.72 0-3.887-.807-7.15-2.42-9.79-1.613-2.713-3.593-4.877-5.94-6.49-2.346-1.687-5.463-3.593-9.35-5.72-.781-.39-1.458-.74-2.031-1.047-.503-.27-.926-.507-1.269-.713-4.839-2.273-8.103-4.033-9.79-5.28-1.613-1.32-2.42-2.787-2.42-4.4 0-1.467.477-2.603 1.431-3.41 1.026-.88 2.346-1.32 3.96-1.32 2.126 0 3.813.623 5.059 1.87 1.32 1.247 1.981 2.677 1.981 4.29v1.54c0 .513.146.917.44 1.21.292.293.696.44 1.209.44h17.05c.22 0 .42-.027.599-.08.24-.073.443-.192.611-.36.294-.293.44-.697.44-1.21v-1.76c0-4.62-1.173-8.727-3.52-12.32-2.273-3.593-5.463-6.38-9.57-8.36-4.106-1.98-8.763-2.97-13.97-2.97-5.06 0-9.57.953-13.53 2.86-3.886 1.833-6.966 4.473-9.24 7.92-2.2 3.373-3.3 7.297-3.3 11.77 0 4.547 1.1 8.47 3.3 11.77 2.2 3.227 4.804 5.83 7.81 7.81 3.007 1.98 6.564 3.96 10.671 5.94l2.639 1.32c3.374 1.54 5.647 2.787 6.821 3.74 1.246.88 1.869 2.017 1.869 3.41 0 1.173-.44 2.237-1.32 3.19-.88.88-2.236 1.32-4.069 1.32-2.274 0-4.107-.587-5.5-1.76-1.321-1.173-1.98-2.567-1.98-4.18v-1.54c0-.15-.013-.289-.038-.42a1.473 1.473 0 0 0-.403-.79c-.293-.293-.696-.44-1.21-.44h-17.05c-.513 0-.916.147-1.21.44-.293.293-.44.697-.44 1.21v2.53c0 4.473 1.101 8.433 3.3 11.88 2.274 3.373 5.427 6.013 9.46 7.92Zm-45.521 2.86c-5.353 0-10.083-1.063-14.19-3.19-4.033-2.127-7.186-5.133-9.46-9.02-2.2-3.887-3.3-8.397-3.3-13.53V4.53c0-.513.147-.917.44-1.21.293-.293.697-.44 1.21-.44h17.38c.514 0 .917.147 1.21.44.294.293.44.697.44 1.21v51.48c0 2.127.55 3.85 1.65 5.17 1.173 1.247 2.714 1.87 4.62 1.87 1.834 0 3.337-.623 4.51-1.87 1.173-1.32 1.76-3.043 1.76-5.17V4.53c0-.513.147-.917.44-1.21a1.427 1.427 0 0 1 .739-.393c.145-.031.302-.047.471-.047h17.38c.284 0 .535.045.752.135a1.422 1.422 0 0 1 .458.305c.293.293.44.697.44 1.21v50.49c0 5.133-1.136 9.643-3.41 13.53-2.2 3.887-5.353 6.893-9.46 9.02-4.033 2.127-8.726 3.19-14.08 3.19Zm-53.981-2.2c.294.88.917 1.32 1.87 1.32h18.15c.954 0 1.43-.367 1.43-1.1 0-.293-.036-.55-.109-.77l-11.33-29.92a.875.875 0 0 1 .043-.535.876.876 0 0 1 .287-.345c3.373-1.907 5.976-4.547 7.81-7.92 1.906-3.447 2.86-7.407 2.86-11.88 0-4.84-.991-9.093-2.971-12.76-1.98-3.74-4.766-6.637-8.36-8.69-3.593-2.053-7.736-3.08-12.43-3.08h-29.04c-.319 0-.595.057-.829.17-.143.069-.27.159-.381.27-.293.293-.44.697-.44 1.21v73.7c0 .513.147.917.44 1.21a1.416 1.416 0 0 0 .646.37c.17.046.358.07.564.07h17.381c.513 0 .916-.147 1.21-.44.293-.293.44-.697.44-1.21V50.95c0-.278.087-.469.263-.571a.788.788 0 0 1 .397-.089h1.98c.44 0 .696.183.77.55l9.349 27.72Zm-12.618-57.779c.109-.127.282-.19.519-.19h5.829c2.054 0 3.667.622 4.841 1.869 1.246 1.247 1.869 2.97 1.869 5.17 0 2.127-.623 3.813-1.869 5.06-1.247 1.247-2.861 1.87-4.841 1.87h-5.829c-.441 0-.66-.22-.66-.66V21.25a.925.925 0 0 1 .052-.32l.013-.031a.521.521 0 0 1 .076-.118ZM360.28 80.76c-5.427 0-10.193-1.063-14.3-3.19-4.107-2.127-7.297-5.133-9.57-9.02-2.273-3.96-3.41-8.543-3.41-13.75V27.63c0-5.133 1.137-9.643 3.41-13.53 2.273-3.887 5.463-6.857 9.57-8.91 4.107-2.127 8.873-3.19 14.3-3.19 5.426 0 10.156 1.027 14.19 3.08 4.107 2.053 7.297 4.95 9.57 8.69 2.273 3.74 3.41 8.103 3.41 13.09a2.368 2.368 0 0 1-.098.677 2.096 2.096 0 0 1-.145.345 2.004 2.004 0 0 1-.197.298c-.293.293-.697.44-1.21.44l-17.38.77c-1.1 0-1.65-.513-1.65-1.54v-1.21c0-2.127-.586-3.813-1.76-5.06-1.173-1.247-2.75-1.87-4.73-1.87-1.98 0-3.594.66-4.84 1.98-1.173 1.247-1.76 2.897-1.76 4.95v29.48c0 2.053.587 3.74 1.76 5.06 1.246 1.247 2.86 1.87 4.84 1.87s3.557-.623 4.73-1.87c1.174-1.247 1.76-2.933 1.76-5.06V54.8c0-1.027.55-1.54 1.65-1.54l17.38.77c.145 0 .282.012.409.035.092.017.179.04.261.069.209.073.389.185.54.336.293.293.44.697.44 1.21 0 4.987-1.137 9.387-3.41 13.2-2.273 3.813-5.463 6.747-9.57 8.8-4.107 2.053-8.837 3.08-14.19 3.08ZM34.317 279.609c9.136 2.733 19.47 3.141 30.536 1.133 14.773-3.18 25.827-10.225 34.212-20.816 9.049-10.195 13.943-22.345 14.339-36.859.231-8.072-1.142-14.827-4.15-20.408-3.036-5.941-6.855-10.778-11.499-14.293-4.683-3.598-10.973-7.408-18.937-11.285-3.026-1.242-5.31-2.223-6.854-2.981-5.29-1.729-9.974-2.445-13.76-3.025-3.485-.533-6.21-.95-7.945-1.932-3.47-2.236-5.26-5.178-5.35-8.886-.09-3.383 1.854-8.28 3.841-10.685 2.16-2.653 4.966-3.438 8.44-4.385 4.597-1.219 8.266-.666 10.97 1.648 2.852 2.333 4.297 5.469 4.298 9.386a218.64 218.64 0 0 0-.013 2.407l.002.649c0 .228.003.454.005.681.002 1.241.307 2.145.916 2.723.633.577 1.47.749 2.571.548 12-2.141 23.126-4.601 35.863-7.505 1.069-.115 1.927-.607 2.575-1.453.636-.857.992-1.992 1.082-3.369a197.413 197.413 0 0 1 .113-2.686l.043-.892.062-1.24c.633-12.595-1.355-23.351-6.074-31.984-4.745-8.392-11.829-13.726-21.204-16.04-9.535-2.03-20.34-1.142-32.089 2.653-11.055 3.742-20.645 9.319-28.908 16.626-8.084 6.915-14.33 14.925-18.742 23.983C4.417 150 2.57 159.113 3.084 168.746c.534 9.789 3.259 18.696 8.141 24.769 4.806 5.979 10.367 10.469 16.697 13.483 6.32 3.063 13.744 5.973 22.262 8.767l.854.303.97.347.905.325.097.034c.87.312 1.74.625 2.607.931 1.902.612 3.632 1.13 5.19 1.597 4.099 1.228 7.006 2.1 8.737 3.367 2.514 1.539 3.804 3.862 3.856 6.933.044 2.59-.757 5.068-2.427 7.473-1.665 2.223-4.314 3.655-7.934 4.305-4.529.807-8.286.186-11.2-1.892-2.756-2.095-4.225-4.929-4.347-8.492a338.51 338.51 0 0 1-.116-3.43c-.033-1.132-.348-1.963-.967-2.492-.62-.542-1.456-.714-2.51-.527a4869.532 4869.532 0 0 0-35.02 7.012c-1.077.211-1.886.702-2.476 1.472-.58.759-.883 1.699-.849 2.818a416.567 416.567 0 0 0 .15 5.466c.25 9.716 2.766 17.871 7.621 24.487 5.095 6.486 12.1 11.088 20.992 13.807Zm148.295 1.323c-12.094-1.17-22.898-4.535-32.329-10.093-9.296-5.585-16.494-12.912-21.593-21.994-4.937-9.282-7.4-19.654-7.547-31.023l-.619-52.671c-.108-8.737 1.937-16.196 6.094-22.566 4.077-6.596 9.821-11.821 17.181-15.651 7.318-4.149 15.781-6.463 25.158-6.809 8.879-.292 16.48 1.45 23.166 5.187 6.996 3.71 12.916 9.055 17.786 16.036 5.072 6.955 8.503 17.176 10.171 26.71.176.997.054 1.848-.35 2.606-.43.612-1.102.944-2.017 1.011-11.06.803-21.7 1.042-31.024 1.042-1.992.027-3.108-.984-3.324-3.019l-.113-1.083c-.046-.428-.094-.856-.142-1.283-.431-4.176-1.803-7.447-4.103-9.854-2.288-2.393-5.166-3.577-8.665-3.564-3.525-.013-6.323 1.211-8.422 3.684-1.991 2.314-2.865 5.412-2.636 9.321a9235.835 9235.835 0 0 0 4.264 59.334c.337 4.361 1.843 8.084 4.521 11.13 2.852 2.912 6.376 4.534 10.547 4.88 4.171.319 7.333-.798 9.472-3.338 2.098-2.566 2.838-5.168 2.26-9.783-.043-.348-.086-1.776-.131-3.492l-.042-1.696v-.006l-.001-.055-.001-.036c-.062-2.524-.124-5.088-.188-5.572-.269-2.207.699-3.271 2.906-3.191 11.763 0 23.486 0 34.656-.447.996-.04 1.843.253 2.543.918.7.651 1.184 1.595 1.413 2.792 2.273 11.675 1.977 31.007-1.023 39.796-3.202 8.591-8.96 14.867-17.248 18.803-8.475 3.79-18.714 5.093-30.62 3.976Zm678.914-15.214c8.529 3.361 18.607 4.184 30.011 2.6 11.111-1.488 20.795-4.994 29.189-10.581 8.381-5.647 14.92-12.89 19.614-21.765 4.818-9.106 7.374-19.154 7.657-30.109a5574.067 5574.067 0 0 1 1.598-49.626c.344-9.129-1.586-16.82-5.838-23.192-4.327-6.554-10.766-11.548-19.283-14.958-8.467-3.688-18.189-5.356-28.61-4.812-9.513.725-17.427 3.53-24.297 8.307-7.067 4.607-12.88 10.738-17.464 18.404-4.781 7.594-7.792 16.275-8.91 26.106a6337.836 6337.836 0 0 0-5.752 52.649c-1.192 11.463.025 21.402 3.724 29.722 3.834 8.029 9.967 13.785 18.361 17.255Zm41.478-39.275c-2.594 3.313-6.022 5.236-10.274 5.78-4.105.508-7.399-.568-9.857-3.277-2.31-2.708-3.294-6.554-2.974-11.499 1.246-18.412 2.425-36.522 3.54-54.329.245-4.619 1.56-8.416 3.981-11.367 2.508-2.975 5.641-4.607 9.451-4.909 3.97-.326 7.104.786 9.39 3.325 2.445 2.515 3.601 6.022 3.465 10.569-.713 17.485-1.475 35.292-2.285 53.422-.209 4.873-1.696 8.972-4.437 12.285Zm125.196 53.66c-2.06-.166-3.33-1.327-3.85-3.47a9486.057 9486.057 0 0 0-16.31-65.638c-.11-.83-.64-1.245-1.59-1.259l-1.94-.002-1.17-.005-1.15-.006c-.95-.014-1.45.483-1.51 1.465a68101.563 68101.563 0 0 0-3.971 62.265c-.065 1.175-.451 2.087-1.121 2.696-.683.622-1.586.885-2.707.774-12.646-1.244-25.284-2.47-37.912-3.678-1.109-.097-1.972-.512-2.552-1.203-.593-.705-.825-1.618-.735-2.724 4.313-52.82 7.9-104.267 10.761-154.34.038-1.051.374-1.936.992-2.627.593-.705 1.431-1.148 2.448-1.314a5625.648 5625.648 0 0 1 59.547-10.246c10.61-1.452 20.09-.318 28.29 3.429 8.11 3.803 14.25 9.915 18.4 18.308 4.07 8.324 5.84 18.307 5.31 29.936-.5 10.744-3.09 20.464-7.77 29.161-4.52 8.518-10.63 15.293-18.31 20.244-.67.566-.96 1.286-.84 2.157a5586.82 5586.82 0 0 1 19.99 74.529c.11.567.15 1.203.1 1.949-.11 1.839-1.21 2.697-3.26 2.572-13.05-.949-26.09-1.94-39.14-2.973Zm-22.75-136.599c-.93.096-1.41.636-1.43 1.604-.35 9.319-.73 18.648-1.16 27.986-.06.982.4 1.438 1.32 1.397 4.18-.221 8.36-.447 12.54-.678 4.29-.249 7.85-1.894 10.68-4.936 2.84-3.07 4.37-7.08 4.58-11.988.19-5.075-1.04-8.933-3.67-11.519-2.46-2.613-5.93-3.664-10.38-3.194-4.16.443-8.33.885-12.48 1.328Zm72.91 122.954c.63.811 1.53 1.356 2.71 1.636 13.52 3.264 27.07 6.566 40.67 9.904 1.21.294 2.16.16 2.85-.375.69-.536 1.05-1.427 1.07-2.635.25-15.028.55-29.958.91-44.79 0-.181.17-.749.53-1.73 1.98-3.384 3.95-6.781 5.91-10.192.34-.468.64-.681.97-.634.45-.113.76.202.92.919 2.02 3.915 4.06 7.844 6.11 11.788l.01.014v.01c9.23 17.762 18.62 35.844 27.3 54.353.89 2.217 2.39 3.585 4.45 4.074 14.8 3.43 29.53 6.788 44.21 10.074 2.21.46 3.18-.341 3-2.36l-.3-1.04-.45-1.515c-19.91-38.357-38.69-75.683-55.71-111.288-.32-.908-.34-1.63-.05-2.152a7528.911 7528.911 0 0 0 34.17-77.856c.39-.915.56-1.715.53-2.412-.04-1.585-.97-2.325-2.78-2.245-12.02.62-24 1.243-35.95 1.867-1.79.094-2.99.996-3.6 2.747a1311.39 1311.39 0 0 1-25.81 57.203c-.3.663-.66.962-1.08.949-.29-.185-.42-.682-.4-1.517.38-18.073.58-36.136.6-54.189-.01-1.159-.28-2.076-.79-2.7-.52-.637-1.22-.938-2.11-.904-9.99.422-20 .802-30.04 1.144-.88.022-1.61.349-2.17.983-.56.634-.88 1.502-.96 2.59-4.78 51.744-9.94 104.207-15.48 157.387-.1 1.126.15 2.094.76 2.892Zm-695.065 7.92c8.516 4.383 18.59 6.586 30.119 6.621 11.517.047 21.616-2.041 30.196-6.226 8.429-4.14 14.617-9.937 18.553-17.37 3.911-7.537 5.328-16.256 4.328-26.239a2208.01 2208.01 0 0 0-6.037-50.741c-1.417-10.47-4.543-19.665-9.238-27.491-4.442-7.746-9.947-13.532-16.515-17.393-6.278-3.885-13.314-5.647-21.249-5.519-7.973-.221-15.085 1.426-21.388 5.125-6.479 3.571-11.87 8.916-16.173 16.036-4.518 7.096-7.429 15.537-8.631 25.335a4697.448 4697.448 0 0 0-5.834 50.647c-1.152 10.656.025 20.141 3.632 28.431 3.796 8.071 9.884 14.332 18.237 18.784Zm40.218-31.851c-2.417 2.794-5.733 4.139-9.947 4.046-4.075-.081-7.391-1.577-9.909-4.51-2.367-2.922-3.442-6.76-3.291-11.491.582-17.779 1.156-35.435 1.722-52.966.139-4.592 1.265-8.221 3.341-10.911 2.151-2.69 4.847-3.989 8.099-3.896 3.367.081 6.062 1.53 8.125 4.359 2.227 2.841 3.455 6.587 3.632 11.236a9186.6 9186.6 0 0 1 1.823 52.99c.126 4.661-1.063 8.383-3.595 11.143ZM535.078 285c-10.309.012-19.565-2.502-27.863-7.554-8.493-5.052-15.556-12.166-21.225-21.281-5.9-9.33-9.741-20.065-11.352-32.207-2.326-19.97-3.913-39.718-4.761-59.243-.291-11.761 2.059-22.043 7.063-30.897 4.991-8.924 12.211-15.907 21.685-20.947 9.438-5.29 20.474-8.031 33.171-7.864 12.878.834 24.326 4.409 34.212 10.295 10.007 5.517 17.567 12.595 22.752 21.221 5.076 8.389 7.486 17.993 7.22 28.919-.687 18.405-1.926 37.589-3.719 57.551-1.236 12.284-4.761 23.223-10.419 32.731-5.222 9.27-11.861 16.491-19.905 21.626-7.801 5.1-16.694 7.638-26.859 7.65Zm-1.077-40.56c4.264-.023 7.644-1.728 10.164-5.088 2.702-3.372 4.107-7.816 4.167-13.333.235-20.701.4-41.247.497-61.638 0-5.362-1.514-9.711-4.543-13.035-2.895-3.36-6.772-5.088-11.654-5.195-4.701-.095-8.529 1.489-11.497 4.766-2.787 3.277-4.107 7.638-3.998 13.095a5228.687 5228.687 0 0 0 2.047 62.138c.254 5.517 1.745 9.95 4.434 13.286 2.811 3.348 6.263 5.016 10.383 5.004ZM304.62 102.852c-.087-1.046.288-1.883 1.075-2.486.801-.59 1.963-.898 3.426-.898l52.482.025c1.463 0 2.601.307 3.375.91.776.603 1.113 1.44 1.001 2.486-3.272 25.316-7.563 50.635-11.854 75.958v.006c-4.278 25.247-8.557 50.497-11.827 75.751-.113 1.046-.501 1.882-1.126 2.485-.625.603-1.425.911-2.4.911h-30.514c-.938 0-1.7-.308-2.263-.911-.55-.603-.85-1.439-.862-2.485-.042-18.959.033-26.918.225-45.876.012-.911-.463-1.354-1.438-1.354-8.159-.008-16.318-.012-24.477-.012-.988 0-1.438.443-1.376 1.353.627 9.316 1.25 15.977 1.868 22.593v.004l.001.008c.64 6.845 1.276 13.642 1.907 23.284.062 1.046-.176 1.882-.688 2.485-.525.603-1.275.911-2.238.911h-31.189c-.988 0-1.813-.308-2.475-.911-.675-.603-1.1-1.439-1.275-2.485-3.521-19.67-7.284-39.361-11.052-59.072l-.006-.035-.002-.008-.001-.009c-5.922-30.985-11.854-62.022-16.869-93.108-.163-1.058.088-1.895.762-2.498.676-.603 1.676-.886 3.013-.874 15.227.107 30.516.21 45.868.308 1.35.012 2.475.32 3.326.923.862.615 1.362 1.452 1.487 2.498 1.183 11.869 2.277 28.651 3.283 44.075l.003.048.002.033.001.019c.566 8.665 1.102 16.896 1.611 23.581.063.911.625 1.354 1.701 1.354 9.009.016 18.031.029 27.065.037 1.088 0 1.625-.443 1.625-1.354-.033-18.573-.425-49.13-1.175-67.67Zm304.954 164.77c-.959 0-1.696-.279-2.23-.839-.516-.549-.778-1.298-.767-2.247.03-45.424-.172-87.93-.576-133.493-.02-.959.192-1.759.676-2.358.495-.629 1.181-1.009 2.059-1.139 9.84-1.508 19.67-3.017 29.489-4.505.868-.13 1.584.05 2.129.539.535.5.858 1.269.919 2.288.18 2.968.354 5.854.527 8.673l.168 2.731c.061.974.121 1.941.183 2.901l.214 3.43c.074 1.198.148 2.396.22 3.593l.016.254c1.607 25.907 2.914 46.962 3.98 75.828 0 .839.444 1.259 1.312 1.259 9.799.05 18.337.159 27.006.279H674.95l2.823.036.046.001c7.063.089 14.302.18 22.441.233 1.07-.01 1.948.3 2.645.879.696.59 1.12 1.389 1.271 2.408.666 2.437 1.615 5.614 2.674 9.16v.01l.204.685.006.018c3.089 10.401 7.026 23.659 7.914 30.585.111.999-.141 1.788-.767 2.358-.625.549-1.554.839-2.745.809-17.348-.37-34.353-1.279-50.611-2.168h-.03c-.007.007-.014.007-.02 0H660.73l-2.361-.132-.005-.001c-17.326-.971-33.769-1.893-48.79-2.075Zm124.897 12.341c-1.427.23-2.395-.62-2.905-2.532-12.272-35.508-22.745-73.278-33.67-112.675l-.007-.026c-4.778-17.233-9.643-34.777-14.782-52.579a31.837 31.837 0 0 1-.037-.483c-.015-.197-.029-.389-.047-.578-.176-2.312.646-3.302 2.5-3.052 11.997 1.851 23.994 3.793 36.012 5.764 2.01.35 3.25 1.541 3.76 3.623 5.186 25.118 12.69 57.096 18.533 81.905.197.62.406.91.676.92.386-.01.625-.34.688-.95.611-8.929 1.269-17.845 1.926-26.723 1.122-15.182 2.235-30.253 3.087-45.089.303-1.992 1.448-2.822 3.416-2.532a1380.388 1380.388 0 0 0 26.39 3.452c1.604.19 2.583 1.281 2.916 3.283 2.486 9.962 5.06 18.526 7.592 26.948 3.011 10.014 5.962 19.829 8.632 31.56.146.52.354.8.614.8a.53.53 0 0 0 .159-.023.633.633 0 0 0 .206-.107c.166-.13.26-.37.322-.7.926-9.513 1.297-18.806 1.666-28.06V162.1c.449-11.255.895-22.452 2.335-33.918.208-1.881 1.146-2.711 2.853-2.521 5.886.655 10.107 1 14.078 1.324l.005.001c4.098.335 7.929.648 13.048 1.257 1.948.21 2.791 1.371 2.51 3.483-1.148 8.624-3.207 32.236-5.373 57.087l-.008.078c-2.566 29.435-5.282 60.588-6.814 70.619-.281 1.841-1.271 2.952-3.01 3.312-4.568.953-7.977 1.693-11.293 2.412A1065.47 1065.47 0 0 1 797.413 268c-1.864.38-2.916-.43-3.176-2.432-4.82-12.948-8.209-25.873-11.64-38.96-2.549-9.724-5.122-19.537-8.323-29.515-.166-.58-.427-.86-.812-.851a.466.466 0 0 0-.198.07.507.507 0 0 0-.114.161c-.094.15-.157.38-.199.67-.855 16.064-2.298 31.838-3.767 47.888-.764 8.357-1.535 16.79-2.234 25.377-.104 2.121-1.01 3.332-2.676 3.602l-2.755.49-16.716 3.5c-2.573.539-7.76 1.533-10.332 1.963Z" fill="#000"/></svg>